<?xml version="1.0" encoding="UTF-8"?>
<svg xmlns="http://www.w3.org/2000/svg" viewBox="0 0 64 64">
  <!-- Background Circle -->
  <circle cx="32" cy="32" r="30" fill="#f0f8ff" stroke="#3498db" stroke-width="2"/>

  <!-- Map Pin -->
  <path d="M32 12c-6.6 0-12 5.4-12 12 0 9 12 24 12 24s12-15 12-24c0-6.6-5.4-12-12-12z" fill="#e74c3c" stroke="#c0392b" stroke-width="1"/>
  <circle cx="32" cy="24" r="4" fill="#ecf0f1"/>

  <!-- Sun Rays -->
  <g transform="translate(44, 16)">
    <circle cx="0" cy="0" r="6" fill="#f39c12" stroke="#e67e22" stroke-width="1"/>
    <g stroke="#f39c12" stroke-width="2">
      <line x1="0" y1="-9" x2="0" y2="-7" />
      <line x1="0" y1="7" x2="0" y2="9" />
      <line x1="-9" y1="0" x2="-7" y2="0" />
      <line x1="7" y1="0" x2="9" y2="0" />
      <line x1="-6" y1="-6" x2="-5" y2="-5" />
      <line x1="5" y1="5" x2="6" y2="6" />
      <line x1="-6" y1="6" x2="-5" y2="5" />
      <line x1="5" y1="-5" x2="6" y2="-6" />
    </g>
  </g>

  <!-- Clouds -->
  <g transform="translate(20, 40)">
    <path d="M-8,0 C-8,-4 -4,-8 0,-8 C2,-8 4,-7 5,-5 C6,-8 9,-10 12,-10 C16,-10 20,-6 20,-2 C20,2 16,6 12,6 L0,6 C-4,6 -8,2 -8,0 Z" fill="#ecf0f1" stroke="#bdc3c7" stroke-width="1"/>
  </g>

  <!-- Rain Drops -->
  <g stroke="#3498db" stroke-width="1.5" stroke-linecap="round">
    <line x1="16" y1="46" x2="14" y2="52" />
    <line x1="22" y1="48" x2="20" y2="54" />
    <line x1="28" y1="46" x2="26" y2="52" />
  </g>

  <!-- Temperature Indicator -->
  <g transform="translate(14, 18)">
    <rect x="-2" y="-2" width="4" height="8" rx="2" ry="2" fill="#e74c3c" stroke="#c0392b" stroke-width="0.5"/>
    <circle cx="0" cy="8" r="3" fill="#e74c3c" stroke="#c0392b" stroke-width="0.5"/>
    <rect x="-0.5" y="-4" width="1" height="10" fill="#ecf0f1"/>
  </g>
</svg>